<?xml version="1.0" encoding="UTF-8"?>
<svg width="752pt" height="752pt" version="1.1" viewBox="0 0 752 752" xmlns="http://www.w3.org/2000/svg">
 <g>
  <path d="m276.36 593.81c9.4727 1.5898 19.426 2.9219 29.746 4.0312v-0.18359c23.211 2.5469 46.543 3.8438 69.891 3.875 23.348-0.03125 46.68-1.3242 69.887-3.8672v0.17578c10.324-1.1094 20.273-2.4414 29.746-4.0312 4.957-11.285 14.023-52.168 12.727-72.738-0.40625-6.1055-4.1055-9.8047-20.016-13.578 0 0 12.32-2.9219 14.91-7.1055 2.5898-4.0703 0.59375-11.582-10.84-21.941-6.4258-5.8633-15.355-11.637-42.211-21.539l-0.42578-1.2578-0.48047-1.3945c-3.6992-12.949-11.137-14.059-15.223-13.582h0.003906c-3.5664 0.58594-7.0469 1.6094-10.359 3.043-8.7578 3.6914-18.176 5.5664-27.676 5.5117h-0.0625 0.003906c-9.5039 0.054687-18.918-1.8203-27.676-5.5117-3.3164-1.4336-6.7969-2.457-10.359-3.043-4.0703-0.48438-11.516 0.64062-15.223 13.582l-0.48047 1.3945-0.42578 1.2578c-26.855 9.9062-35.785 15.676-42.211 21.539-11.434 10.359-13.43 17.871-10.84 21.941 2.5898 4.1797 14.91 7.1055 14.91 7.1055-15.91 3.7734-19.609 7.4727-20.016 13.578-1.3203 20.57 7.7422 61.453 12.699 72.738zm52.863-135.79 0.53125-1.5664c2.5898-8.9961 6.125-8.5859 7.2969-8.4375h0.003906c2.9609 0.52344 5.8516 1.3906 8.6133 2.5898 9.5938 4.0078 19.898 6.043 30.301 5.9922h0.0625-0.003906c10.398 0.050781 20.703-1.9883 30.301-5.9922 2.7617-1.1992 5.6523-2.0664 8.6133-2.5898 1.1719-0.14844 4.7188-0.55859 7.2969 8.4375l0.53125 1.5664c11.73 34.57 23.82 70.352 19.898 132.59v-0.003906c-22.148 2.3203-44.402 3.5-66.672 3.5273-22.273-0.023438-44.527-1.1992-66.68-3.5195-3.9102-62.23 8.1797-98.016 19.906-132.59z"/>
  <path d="m200.89 558.74c5.6953-13.09 12.645-25.59 20.758-37.332 5.1836-8.2109 12.348-14.992 20.828-19.723l25.676-16.094c-5.7734 8.4727-4.3672 13.949-2.5547 16.797h0.003906c1.6016 2.1289 3.7305 3.8008 6.1797 4.8477-7.2148 2.8867-11.395 6.8086-11.84 13.617-1.2578 19.832 6.918 58.234 12.172 72.223-29.711-5.0703-54.02-12.098-67.375-19.98-4.7188-3.1289-6.3711-9.2852-3.8477-14.355z"/>
  <path d="m493.77 520.22c-0.44531-6.8086-4.625-10.73-11.84-13.617h0.003906c2.4453-1.0469 4.5742-2.7188 6.1758-4.8477 1.8125-2.8477 3.2188-8.3242-2.5547-16.797 0 0 17.672 13.02 23.969 16.723 8.2617 5.0273 15.363 11.746 20.832 19.723 8.1133 11.742 15.062 24.242 20.758 37.332 2.5195 5.0703 0.87109 11.227-3.8516 14.355-13.355 7.8789-35.957 14.281-65.664 19.352 5.2539-13.988 13.43-52.391 12.172-72.223z"/>
  <path d="m297.64 313.56c-5.1016 6.7383-7.6562 15.066-7.2109 23.508 0.44922 8.4375 3.8672 16.449 9.6523 22.613 5.7852 6.1602 13.566 10.078 21.961 11.055s16.867-1.0508 23.914-5.7188 12.211-11.68 14.586-19.793c2.3711-8.1133 1.7969-16.805-1.625-24.535 5.7227 0.22266 11.445 0.37109 17.082 0.37109s11.359-0.14844 17.082-0.37109c-3.3828 7.7148-3.9297 16.375-1.5508 24.457 2.3828 8.0781 7.543 15.059 14.566 19.703 7.0273 4.6484 15.469 6.6602 23.836 5.6875 8.3672-0.97266 16.121-4.8711 21.895-11.004s9.1953-14.109 9.6562-22.523c0.46484-8.4102-2.0586-16.715-7.1211-23.445 42.32-8.5469 72.352-23.348 75.504-37.547 0.81641-3.6289-0.085938-7.4375-2.4453-10.312-5.6992-7.3125-20.598-11.965-41.18-12.949-8.2266-39.273-32.441-87.438-62.512-101.79-11.816-6.0664-25.887-5.8008-37.465 0.70312-6.4336 3.3906-14.125 3.3906-20.562 0-11.57-6.4922-25.625-6.7539-37.43-0.70312-30.059 14.348-54.27 62.527-62.496 101.8-20.543 0.95312-35.477 5.6133-41.184 12.949h0.003906c-2.3633 2.8789-3.2656 6.6875-2.4453 10.32 3.1367 14.18 33.172 28.98 75.488 37.523z"/>
 </g>
</svg>
